<svg width="115" height="52" viewBox="0 0 115 52" fill="none" xmlns="http://www.w3.org/2000/svg">
<path d="M12.7393 8.39185H17.2891V16.6643H12.7393V21.1311H4.4668V16.6643H0V8.39185H4.4668V3.84204H12.7393V8.39185Z" fill="#009DFF"/>
<path d="M26.0875 27.3895C26.5486 27.6457 27.0352 27.8506 27.5475 28.0043C28.0598 28.1323 28.5976 28.1964 29.1612 28.1964C30.0064 28.1964 30.7876 28.0427 31.5048 27.7353C32.2476 27.4023 32.9007 26.9669 33.4642 26.429C34.0277 25.8655 34.4632 25.2124 34.7705 24.4696C35.1035 23.7268 35.27 22.9328 35.27 22.0875C35.27 21.2423 35.1035 20.461 34.7705 19.7439C34.4632 19.0011 34.0277 18.3479 33.4642 17.7844C32.9007 17.2209 32.2476 16.7855 31.5048 16.4781C30.7876 16.1451 30.0064 15.9786 29.1612 15.9786C28.3159 15.9786 27.5219 16.1451 26.7791 16.4781C26.0619 16.7855 25.4216 17.2209 24.8581 17.7844C24.2946 18.3479 23.8463 19.0011 23.5133 19.7439C23.206 20.461 23.0523 21.2423 23.0523 22.0875V39.1078H18.826V22.0875C18.826 20.6788 19.095 19.3468 19.6329 18.0918C20.1708 16.8367 20.9135 15.7353 21.8613 14.7876C22.809 13.8399 23.8975 13.0971 25.127 12.5592C26.3821 12.0213 27.7268 11.7524 29.1612 11.7524C30.5699 11.7524 31.9018 12.0213 33.1569 12.5592C34.412 13.0971 35.5133 13.8399 36.461 14.7876C37.4088 15.7353 38.1515 16.8367 38.6894 18.0918C39.2273 19.3468 39.4963 20.6788 39.4963 22.0875C39.4963 23.5219 39.2273 24.8666 38.6894 26.1217C38.1515 27.3767 37.4088 28.4781 36.461 29.4258C35.5133 30.3479 34.412 31.0779 33.1569 31.6158C31.9018 32.1537 30.5699 32.4226 29.1612 32.4226C27.1889 32.4226 25.3703 31.9104 23.7054 30.8858L26.0875 27.3895ZM41.7883 32V19.2828C41.7883 18.2583 41.9804 17.2849 42.3646 16.3629C42.7488 15.4408 43.2739 14.6467 43.9398 13.9808C44.6314 13.3148 45.4254 12.7897 46.3219 12.4055C47.2184 11.9957 48.1917 11.7908 49.2419 11.7908V16.0171C48.3454 16.0171 47.577 16.3372 46.9366 16.9776C46.3219 17.6179 46.0145 18.3863 46.0145 19.2828V32H41.7883ZM66.0031 30.9242C64.3382 31.9488 62.5197 32.461 60.5474 32.461C59.113 32.461 57.7683 32.1921 56.5132 31.6542C55.2838 31.1163 54.1952 30.3863 53.2475 29.4642C52.2998 28.5165 51.557 27.4152 51.0191 26.1601C50.4812 24.905 50.2123 23.5603 50.2123 22.1259C50.2123 20.7172 50.4812 19.3853 51.0191 18.1302C51.557 16.8751 52.2998 15.7737 53.2475 14.826C54.1952 13.8783 55.2838 13.1355 56.5132 12.5976C57.7683 12.0598 59.113 11.7908 60.5474 11.7908C61.9562 11.7908 63.2881 12.0598 64.5431 12.5976C65.7982 13.1355 66.8996 13.8783 67.8473 14.826C68.795 15.7737 69.5378 16.8751 70.0757 18.1302C70.6136 19.3853 70.8825 20.7172 70.8825 22.1259V32H66.6563V22.1259C66.6563 21.2807 66.4898 20.4995 66.1568 19.7823C65.8494 19.0395 65.414 18.3863 64.8505 17.8228C64.287 17.2593 63.6338 16.8239 62.8911 16.5165C62.1739 16.1836 61.3927 16.0171 60.5474 16.0171C59.7021 16.0171 58.9081 16.1836 58.1653 16.5165C57.4481 16.8239 56.8078 17.2593 56.2443 17.8228C55.6808 18.3863 55.2326 19.0395 54.8996 19.7823C54.5922 20.4995 54.4385 21.2807 54.4385 22.1259C54.4385 22.9712 54.5922 23.7652 54.8996 24.508C55.2326 25.2508 55.6808 25.9039 56.2443 26.4674C56.8078 27.0053 57.4481 27.4408 58.1653 27.7737C58.9081 28.0811 59.7021 28.2348 60.5474 28.2348C61.1109 28.2348 61.6488 28.1708 62.1611 28.0427C62.6733 27.889 63.16 27.6841 63.621 27.428L66.0031 30.9242Z" fill="white"/>
<path d="M56.4781 46.7364V40.3778C56.4781 39.8655 56.5742 39.3789 56.7663 38.9178C56.9584 38.4568 57.2209 38.0598 57.5539 37.7268C57.8997 37.3938 58.2967 37.1313 58.745 36.9392C59.1932 36.7343 59.6799 36.6318 60.2049 36.6318C60.7428 36.6318 61.2359 36.7343 61.6841 36.9392C62.1452 37.1441 62.5422 37.4194 62.8752 37.7652C63.2081 37.4194 63.5987 37.1441 64.047 36.9392C64.508 36.7343 65.0075 36.6318 65.5454 36.6318C66.0577 36.6318 66.5379 36.7343 66.9861 36.9392C67.4472 37.1313 67.8442 37.3938 68.1772 37.7268C68.523 38.0598 68.7919 38.4568 68.984 38.9178C69.1761 39.3789 69.2722 39.8655 69.2722 40.3778V46.7364H67.159V40.3778C67.159 39.9296 66.999 39.5454 66.6788 39.2252C66.3714 38.905 65.9936 38.7449 65.5454 38.7449C65.0971 38.7449 64.7129 38.905 64.3928 39.2252C64.0854 39.5454 63.9317 39.9296 63.9317 40.3778V46.7364H61.8186V40.3202C61.8186 39.8719 61.6585 39.5005 61.3383 39.206C61.031 38.8986 60.6532 38.7449 60.2049 38.7449C59.7567 38.7449 59.3725 38.905 59.0523 39.2252C58.745 39.5454 58.5913 39.9296 58.5913 40.3778V46.7364H56.4781ZM70.4266 41.7994C70.4266 41.095 70.5611 40.429 70.83 39.8015C71.0989 39.174 71.4703 38.6233 71.9442 38.1494C72.418 37.6756 72.9623 37.3042 73.5771 37.0352C74.2046 36.7663 74.877 36.6318 75.5941 36.6318C76.2985 36.6318 76.9645 36.7663 77.592 37.0352C78.2195 37.3042 78.7702 37.6756 79.2441 38.1494C79.7179 38.6233 80.0893 39.174 80.3583 39.8015C80.6272 40.429 80.7617 41.095 80.7617 41.7994C80.7617 42.5165 80.6272 43.1889 80.3583 43.8164C80.0893 44.444 79.7179 44.9947 79.2441 45.4685C78.7702 45.9296 78.2195 46.2946 77.592 46.5635C76.9645 46.8324 76.2985 46.9669 75.5941 46.9669C74.877 46.9669 74.2046 46.8324 73.5771 46.5635C72.9623 46.2946 72.418 45.9296 71.9442 45.4685C71.4703 44.9947 71.0989 44.444 70.83 43.8164C70.5611 43.1889 70.4266 42.5165 70.4266 41.7994ZM72.5397 41.7994C72.5397 42.222 72.6166 42.619 72.7702 42.9904C72.9367 43.3618 73.1608 43.6884 73.4426 43.9701C73.7243 44.2391 74.0445 44.4568 74.4031 44.6233C74.7745 44.7769 75.1715 44.8538 75.5941 44.8538C76.0168 44.8538 76.4074 44.7769 76.766 44.6233C77.1374 44.4568 77.4639 44.2391 77.7457 43.9701C78.0274 43.6884 78.2452 43.3618 78.3988 42.9904C78.5653 42.619 78.6486 42.222 78.6486 41.7994C78.6486 41.3767 78.5653 40.9861 78.3988 40.6275C78.2452 40.2561 78.0274 39.9296 77.7457 39.6478C77.4639 39.3661 77.1374 39.1483 76.766 38.9947C76.4074 38.8282 76.0168 38.7449 75.5941 38.7449C75.1715 38.7449 74.7745 38.8282 74.4031 38.9947C74.0445 39.1483 73.7243 39.3661 73.4426 39.6478C73.1608 39.9296 72.9367 40.2561 72.7702 40.6275C72.6166 40.9861 72.5397 41.3767 72.5397 41.7994ZM83.6072 36.8239L85.9701 42.8559L88.3137 36.8239H90.5805L86.8922 46.2561C86.8281 46.461 86.7129 46.6275 86.5464 46.7556C86.3799 46.8965 86.1878 46.9669 85.9701 46.9669C85.7524 46.9669 85.5603 46.9093 85.3938 46.794C85.2401 46.6788 85.1248 46.5315 85.048 46.3522L81.3404 36.8239H83.6072ZM91.7327 36.8239H93.8458V46.7364H91.7327V36.8239ZM91.5982 34.9221C91.5982 34.6275 91.7135 34.3714 91.944 34.1537C92.1745 33.936 92.4371 33.8271 92.7316 33.8271C93.0262 33.8271 93.2823 33.936 93.5 34.1537C93.7178 34.3714 93.8266 34.6275 93.8266 34.9221C93.8266 35.2166 93.7178 35.4792 93.5 35.7097C93.2823 35.9402 93.0262 36.0555 92.7316 36.0555C92.4371 36.0555 92.1745 35.9402 91.944 35.7097C91.7135 35.4792 91.5982 35.2166 91.5982 34.9221ZM100.226 38.7449C99.8034 38.7449 99.4064 38.8282 99.035 38.9947C98.6764 39.1483 98.3562 39.3661 98.0745 39.6478C97.7927 39.9296 97.5686 40.2561 97.4021 40.6275C97.2484 40.9861 97.1716 41.3767 97.1716 41.7994C97.1716 42.222 97.2484 42.619 97.4021 42.9904C97.5686 43.3618 97.7927 43.6884 98.0745 43.9701C98.3562 44.2391 98.6764 44.4568 99.035 44.6233C99.4064 44.7769 99.8034 44.8538 100.226 44.8538C100.661 44.8538 101.065 44.7705 101.436 44.6041C101.82 44.4376 102.153 44.207 102.435 43.9125L103.972 45.3533C103.498 45.8527 102.935 46.2497 102.282 46.5443C101.641 46.826 100.956 46.9669 100.226 46.9669C99.5089 46.9669 98.8365 46.8324 98.209 46.5635C97.5942 46.2946 97.0499 45.9296 96.5761 45.4685C96.1022 44.9947 95.7308 44.444 95.4619 43.8164C95.193 43.1889 95.0585 42.5165 95.0585 41.7994C95.0585 41.095 95.193 40.429 95.4619 39.8015C95.7308 39.174 96.1022 38.6233 96.5761 38.1494C97.0499 37.6756 97.5942 37.3042 98.209 37.0352C98.8365 36.7663 99.5089 36.6318 100.226 36.6318C100.623 36.6318 101.026 36.6766 101.436 36.7663C101.846 36.8559 102.243 36.9968 102.627 37.1889C103.012 37.381 103.377 37.6371 103.722 37.9573C104.068 38.2647 104.375 38.6489 104.644 39.1099L99.8995 43.9125L98.3434 42.4525L101.667 39.1099C101.155 38.8666 100.674 38.7449 100.226 38.7449ZM107.186 42.2412C106.891 42.1643 106.622 42.0427 106.379 41.8762C106.148 41.7097 105.944 41.5112 105.764 41.2807C105.598 41.0502 105.463 40.794 105.361 40.5123C105.271 40.2177 105.226 39.9167 105.226 39.6094C105.226 39.2252 105.297 38.8666 105.438 38.5336C105.591 38.1878 105.796 37.8933 106.052 37.6499C106.309 37.3938 106.603 37.1953 106.936 37.0544C107.269 36.9007 107.628 36.8239 108.012 36.8239H113.448V38.937H107.954C107.775 38.9626 107.628 39.0395 107.512 39.1675C107.397 39.2956 107.34 39.4429 107.34 39.6094C107.34 39.7503 107.378 39.8783 107.455 39.9936C107.544 40.1089 107.653 40.1793 107.781 40.2049L111.835 41.2423C112.155 41.3063 112.456 41.4216 112.738 41.588C113.019 41.7417 113.263 41.9402 113.468 42.1836C113.673 42.4269 113.833 42.7022 113.948 43.0096C114.076 43.317 114.14 43.6435 114.14 43.9893C114.14 44.3735 114.063 44.7321 113.909 45.0651C113.769 45.3981 113.57 45.6926 113.314 45.9488C113.071 46.1921 112.782 46.3842 112.449 46.5251C112.116 46.666 111.764 46.7364 111.393 46.7364H105.86V44.6233H111.47C111.623 44.5976 111.751 44.5272 111.854 44.4119C111.969 44.2967 112.027 44.1558 112.027 43.9893C112.027 43.8228 111.976 43.682 111.873 43.5667C111.771 43.4386 111.649 43.3618 111.508 43.3362L107.186 42.2412Z" fill="white"/>
</svg>
